<mxfile host="65bd71144e">
    <diagram id="icP3cNBVygqaCpu-RxVH" name="Page-1">
        <mxGraphModel dx="1802" dy="692" grid="1" gridSize="10" guides="1" tooltips="1" connect="1" arrows="1" fold="1" page="1" pageScale="1" pageWidth="850" pageHeight="1100" math="0" shadow="0">
            <root>
                <mxCell id="0"/>
                <mxCell id="1" parent="0"/>
                <mxCell id="5" value="User" style="edgeStyle=none;html=1;" edge="1" parent="1" source="2" target="3">
                    <mxGeometry relative="1" as="geometry"/>
                </mxCell>
                <mxCell id="6" value="Shop kepper" style="edgeStyle=none;html=1;" edge="1" parent="1" source="2" target="4">
                    <mxGeometry relative="1" as="geometry"/>
                </mxCell>
                <mxCell id="42" style="edgeStyle=none;html=1;entryX=0.5;entryY=0;entryDx=0;entryDy=0;" edge="1" parent="1" source="2" target="41">
                    <mxGeometry relative="1" as="geometry"/>
                </mxCell>
                <mxCell id="43" value="Delivery" style="edgeLabel;html=1;align=center;verticalAlign=middle;resizable=0;points=[];" vertex="1" connectable="0" parent="42">
                    <mxGeometry x="-0.1169" y="1" relative="1" as="geometry">
                        <mxPoint as="offset"/>
                    </mxGeometry>
                </mxCell>
                <mxCell id="61" value="Doctor" style="edgeStyle=none;html=1;entryX=0.5;entryY=0;entryDx=0;entryDy=0;" edge="1" parent="1" source="2" target="60">
                    <mxGeometry relative="1" as="geometry"/>
                </mxCell>
                <mxCell id="2" value="Application" style="rounded=1;whiteSpace=wrap;html=1;" vertex="1" parent="1">
                    <mxGeometry x="450" y="30" width="120" height="60" as="geometry"/>
                </mxCell>
                <mxCell id="8" value="" style="edgeStyle=none;html=1;" edge="1" parent="1" source="3" target="7">
                    <mxGeometry relative="1" as="geometry"/>
                </mxCell>
                <mxCell id="3" value="Authentication" style="whiteSpace=wrap;html=1;" vertex="1" parent="1">
                    <mxGeometry x="950" y="80" width="120" height="60" as="geometry"/>
                </mxCell>
                <mxCell id="10" value="" style="edgeStyle=none;html=1;" edge="1" parent="1" source="4" target="9">
                    <mxGeometry relative="1" as="geometry"/>
                </mxCell>
                <mxCell id="4" value="Authentication" style="whiteSpace=wrap;html=1;" vertex="1" parent="1">
                    <mxGeometry x="-60" y="220" width="120" height="60" as="geometry"/>
                </mxCell>
                <mxCell id="12" value="" style="edgeStyle=none;html=1;" edge="1" parent="1" source="7" target="11">
                    <mxGeometry relative="1" as="geometry"/>
                </mxCell>
                <mxCell id="13" value="" style="edgeStyle=none;html=1;" edge="1" parent="1" source="7" target="11">
                    <mxGeometry relative="1" as="geometry"/>
                </mxCell>
                <mxCell id="14" value="" style="edgeStyle=none;html=1;" edge="1" parent="1" source="7" target="11">
                    <mxGeometry relative="1" as="geometry"/>
                </mxCell>
                <mxCell id="17" style="edgeStyle=none;html=1;entryX=0.5;entryY=0;entryDx=0;entryDy=0;" edge="1" parent="1" source="7" target="16">
                    <mxGeometry relative="1" as="geometry"/>
                </mxCell>
                <mxCell id="18" style="edgeStyle=none;html=1;entryX=0.5;entryY=0;entryDx=0;entryDy=0;" edge="1" parent="1" source="7" target="15">
                    <mxGeometry relative="1" as="geometry"/>
                </mxCell>
                <mxCell id="7" value="Home Page" style="whiteSpace=wrap;html=1;" vertex="1" parent="1">
                    <mxGeometry x="960" y="175" width="120" height="60" as="geometry"/>
                </mxCell>
                <mxCell id="23" style="edgeStyle=none;html=1;entryX=0.5;entryY=0;entryDx=0;entryDy=0;" edge="1" parent="1" source="9" target="22">
                    <mxGeometry relative="1" as="geometry"/>
                </mxCell>
                <mxCell id="24" style="edgeStyle=none;html=1;entryX=0.5;entryY=0;entryDx=0;entryDy=0;" edge="1" parent="1" source="9" target="21">
                    <mxGeometry relative="1" as="geometry"/>
                </mxCell>
                <mxCell id="38" value="" style="edgeStyle=none;html=1;" edge="1" parent="1" source="9" target="37">
                    <mxGeometry relative="1" as="geometry"/>
                </mxCell>
                <mxCell id="9" value="Home Page" style="whiteSpace=wrap;html=1;" vertex="1" parent="1">
                    <mxGeometry x="-50" y="330" width="120" height="60" as="geometry"/>
                </mxCell>
                <mxCell id="11" value="Buy medicine" style="whiteSpace=wrap;html=1;" vertex="1" parent="1">
                    <mxGeometry x="960" y="310" width="120" height="60" as="geometry"/>
                </mxCell>
                <mxCell id="15" value="Get Medical Advise with a doctor" style="whiteSpace=wrap;html=1;" vertex="1" parent="1">
                    <mxGeometry x="1100" y="310" width="120" height="60" as="geometry"/>
                </mxCell>
                <mxCell id="16" value="Buy medical equpments" style="whiteSpace=wrap;html=1;" vertex="1" parent="1">
                    <mxGeometry x="820" y="310" width="120" height="60" as="geometry"/>
                </mxCell>
                <mxCell id="55" value="" style="edgeStyle=none;html=1;" edge="1" parent="1" source="19" target="7">
                    <mxGeometry relative="1" as="geometry"/>
                </mxCell>
                <mxCell id="19" value="Fitness Data from google fit" style="whiteSpace=wrap;html=1;" vertex="1" parent="1">
                    <mxGeometry x="1120" y="175" width="120" height="60" as="geometry"/>
                </mxCell>
                <mxCell id="21" value="restore stock" style="whiteSpace=wrap;html=1;" vertex="1" parent="1">
                    <mxGeometry x="-120" y="410" width="120" height="60" as="geometry"/>
                </mxCell>
                <mxCell id="22" value="add new medicine" style="whiteSpace=wrap;html=1;" vertex="1" parent="1">
                    <mxGeometry x="30" y="430" width="120" height="60" as="geometry"/>
                </mxCell>
                <mxCell id="34" value="" style="edgeStyle=none;html=1;" edge="1" parent="1" source="27" target="33">
                    <mxGeometry relative="1" as="geometry"/>
                </mxCell>
                <mxCell id="27" value="Accept appointment" style="whiteSpace=wrap;html=1;" vertex="1" parent="1">
                    <mxGeometry x="350" y="390" width="120" height="60" as="geometry"/>
                </mxCell>
                <mxCell id="28" value="take leave" style="whiteSpace=wrap;html=1;" vertex="1" parent="1">
                    <mxGeometry x="200" y="390" width="120" height="60" as="geometry"/>
                </mxCell>
                <mxCell id="36" value="" style="edgeStyle=none;html=1;" edge="1" parent="1" source="33" target="35">
                    <mxGeometry relative="1" as="geometry"/>
                </mxCell>
                <mxCell id="47" style="edgeStyle=none;html=1;entryX=0.5;entryY=0;entryDx=0;entryDy=0;" edge="1" parent="1" source="33" target="46">
                    <mxGeometry relative="1" as="geometry"/>
                </mxCell>
                <mxCell id="33" value="Diagnise" style="whiteSpace=wrap;html=1;" vertex="1" parent="1">
                    <mxGeometry x="350" y="480" width="120" height="60" as="geometry"/>
                </mxCell>
                <mxCell id="35" value="prescribe medicine" style="whiteSpace=wrap;html=1;" vertex="1" parent="1">
                    <mxGeometry x="220" y="570" width="120" height="60" as="geometry"/>
                </mxCell>
                <mxCell id="37" value="orders" style="whiteSpace=wrap;html=1;" vertex="1" parent="1">
                    <mxGeometry x="-220" y="330" width="120" height="60" as="geometry"/>
                </mxCell>
                <mxCell id="45" style="edgeStyle=none;html=1;entryX=0.5;entryY=0;entryDx=0;entryDy=0;" edge="1" parent="1" source="41" target="44">
                    <mxGeometry relative="1" as="geometry"/>
                </mxCell>
                <mxCell id="41" value="Authentication" style="whiteSpace=wrap;html=1;" vertex="1" parent="1">
                    <mxGeometry x="600" y="310" width="120" height="60" as="geometry"/>
                </mxCell>
                <mxCell id="49" value="" style="edgeStyle=none;html=1;" edge="1" parent="1" source="44" target="48">
                    <mxGeometry relative="1" as="geometry"/>
                </mxCell>
                <mxCell id="53" style="edgeStyle=none;html=1;entryX=0.5;entryY=0;entryDx=0;entryDy=0;" edge="1" parent="1" source="44" target="52">
                    <mxGeometry relative="1" as="geometry"/>
                </mxCell>
                <mxCell id="54" style="edgeStyle=none;html=1;" edge="1" parent="1" source="44" target="51">
                    <mxGeometry relative="1" as="geometry"/>
                </mxCell>
                <mxCell id="44" value="Home Page" style="whiteSpace=wrap;html=1;" vertex="1" parent="1">
                    <mxGeometry x="610" y="410" width="120" height="60" as="geometry"/>
                </mxCell>
                <mxCell id="46" value="Change another Doctor" style="whiteSpace=wrap;html=1;" vertex="1" parent="1">
                    <mxGeometry x="365" y="570" width="120" height="60" as="geometry"/>
                </mxCell>
                <mxCell id="48" value="Orders" style="whiteSpace=wrap;html=1;" vertex="1" parent="1">
                    <mxGeometry x="800" y="530" width="120" height="60" as="geometry"/>
                </mxCell>
                <mxCell id="51" value="Drone GIS data" style="whiteSpace=wrap;html=1;" vertex="1" parent="1">
                    <mxGeometry x="530" y="530" width="120" height="60" as="geometry"/>
                </mxCell>
                <mxCell id="52" value="Medicine delivery status" style="whiteSpace=wrap;html=1;" vertex="1" parent="1">
                    <mxGeometry x="660" y="530" width="120" height="60" as="geometry"/>
                </mxCell>
                <mxCell id="57" style="edgeStyle=none;html=1;entryX=0.5;entryY=0;entryDx=0;entryDy=0;" edge="1" parent="1" source="56" target="28">
                    <mxGeometry relative="1" as="geometry"/>
                </mxCell>
                <mxCell id="59" style="edgeStyle=none;html=1;entryX=0.5;entryY=0;entryDx=0;entryDy=0;" edge="1" parent="1" source="56" target="27">
                    <mxGeometry relative="1" as="geometry"/>
                </mxCell>
                <mxCell id="56" value="Home Page" style="whiteSpace=wrap;html=1;" vertex="1" parent="1">
                    <mxGeometry x="280" y="300" width="120" height="60" as="geometry"/>
                </mxCell>
                <mxCell id="62" value="" style="edgeStyle=none;html=1;" edge="1" parent="1" source="60" target="56">
                    <mxGeometry relative="1" as="geometry"/>
                </mxCell>
                <mxCell id="60" value="Authentication" style="whiteSpace=wrap;html=1;" vertex="1" parent="1">
                    <mxGeometry x="290" y="210" width="120" height="60" as="geometry"/>
                </mxCell>
            </root>
        </mxGraphModel>
    </diagram>
</mxfile>